<svg width="30" height="30" viewBox="0 0 30 30" fill="none" xmlns="http://www.w3.org/2000/svg">
<path d="M6.9129 22.721H10.1985V14.7183H6.9129V22.721ZM20.0555 22.721H23.3411V6.71562H20.0555V22.721ZM13.4842 22.721H16.7698V17.9194H13.4842V22.721ZM13.4842 14.7183H16.7698V11.5172H13.4842V14.7183ZM3.62726 29.1231C2.7237 29.1231 1.95021 28.8097 1.30677 28.1828C0.663333 27.556 0.341614 26.8024 0.341614 25.9221V3.51455C0.341614 2.63426 0.663333 1.88067 1.30677 1.25379C1.95021 0.626915 2.7237 0.313477 3.62726 0.313477H26.6267C27.5303 0.313477 28.3038 0.626915 28.9472 1.25379C29.5907 1.88067 29.9124 2.63426 29.9124 3.51455V25.9221C29.9124 26.8024 29.5907 27.556 28.9472 28.1828C28.3038 28.8097 27.5303 29.1231 26.6267 29.1231H3.62726ZM3.62726 25.9221H26.6267V3.51455H3.62726V25.9221Z" fill="#ED1C24"/>
</svg>
