<svg width="30" height="29" viewBox="0 0 30 29" fill="none" xmlns="http://www.w3.org/2000/svg">
<path d="M6.69305 22.5594H9.97869V14.5567H6.69305V22.5594ZM19.8356 22.5594H23.1213V6.554H19.8356V22.5594ZM13.2643 22.5594H16.55V17.7578H13.2643V22.5594ZM13.2643 14.5567H16.55V11.3556H13.2643V14.5567ZM3.40741 28.9615C2.50386 28.9615 1.73036 28.6481 1.08692 28.0212C0.443484 27.3943 0.121765 26.6407 0.121765 25.7604V3.35293C0.121765 2.47263 0.443484 1.71905 1.08692 1.09217C1.73036 0.465294 2.50386 0.151855 3.40741 0.151855H26.4069C27.3105 0.151855 28.0839 0.465294 28.7274 1.09217C29.3708 1.71905 29.6925 2.47263 29.6925 3.35293V25.7604C29.6925 26.6407 29.3708 27.3943 28.7274 28.0212C28.0839 28.6481 27.3105 28.9615 26.4069 28.9615H3.40741ZM3.40741 25.7604H26.4069V3.35293H3.40741V25.7604Z" fill="white"/>
</svg>
